<svg id="Layer_1" data-name="Layer 1" xmlns="http://www.w3.org/2000/svg" viewBox="0 0 90.22 275.38"><path d="M171.91,167.84c0-.64-.08-1.28-.13-1.93a2.83,2.83,0,0,0-2.78-2.78c-6.52-.19-13,.5-19.5.2-.07-2-.19-3.89-.29-5.73a2.21,2.21,0,0,0-.42-2.13c-2.61-3.49-11.38-2-15.09-1.95-6.5,0-13,.35-19.53.17a2.82,2.82,0,0,0-2.79,2.79c0,1.82,0,3.63,0,5.45-7.91-.3-15.82-.56-23.73-.61a2.84,2.84,0,0,0-2.79,2.79c.09,34.45,0,69.18-2,103.59a2.81,2.81,0,0,0,2.78,2.78c28.07.26,56.15,1.92,84.23,1.47a2.84,2.84,0,0,0,2.78-2.79C172.93,235.44,173.76,201.53,171.91,167.84Zm-55.16,1.89q13.41.35,26.83.59a2.69,2.69,0,0,1-1.1,1.54c-1,.66-4,.16-5.12.18a134.3,134.3,0,0,1-20.64-1.26Zm.21-10.44c4.25,0,8.5-.14,12.74-.18,3.27,0,6.54-.05,9.81,0a34.57,34.57,0,0,0,3.8.1h.39c.05,1.29.07,2.59.08,3.88q-7.28-.32-14.57-.53c-4.08-.12-8.17-.27-12.27-.42C117,161.18,117,160.24,117,159.29ZM164.25,207l-.75,54.28a2.83,2.83,0,0,1-2.79,2.78l-22.64-.32-31.71-.45c-3.7,0-12.15,1.64-13.52-3-1.21-4.05-.31-9.47-.2-13.61.13-4.89.37-9.77.53-14.66.67-20.08.84-40,.45-60.14a2.81,2.81,0,0,1,2.78-2.78q7.39.27,14.79.46l-.12,3.58a2.78,2.78,0,0,0,2,2.68c9.94,1.53,21.81,3.4,31.79,1.4,2.39-.47,3.48-1.41,4-3.84a28.3,28.3,0,0,0,.45-3l12.58.23a2.84,2.84,0,0,1,2.79,2.78Q164.48,190.23,164.25,207Z" transform="translate(-82.86 -153.18)"/><path d="M115.93,428.06c-.19.32-.16.49-.1.5s.08-.25.13-.38Z" transform="translate(-82.86 -153.18)"/><path d="M124.06,247.75c7.87-2.49,10.26-11.15,13.65-18q6.4-13,12.46-26.08c4.28-9.24-9.45-17.35-13.76-8-4.55,9.84-8.81,21-14.22,30.93-.4-.7-.8-1.4-1.21-2.05-5.47-8.65-19.26-.66-13.76,8.05,2.8,4.43,5.27,9.47,9.08,13.12A8,8,0,0,0,124.06,247.75Z" transform="translate(-82.86 -153.18)"/></svg>