<svg id="Layer_1" data-name="Layer 1" xmlns="http://www.w3.org/2000/svg" viewBox="0 0 90.22 118.85"><path d="M180.27,175.82l-.12-1.93a2.86,2.86,0,0,0-2.79-2.79c-6.51-.19-13,.5-19.49.2-.07-2-.2-3.88-.29-5.72a2.26,2.26,0,0,0-.42-2.14c-2.62-3.48-11.39-2-15.09-1.95-6.51,0-13,.35-19.54.18a2.81,2.81,0,0,0-2.78,2.78c0,1.82,0,3.63,0,5.45-7.91-.29-15.82-.55-23.73-.6a2.82,2.82,0,0,0-2.78,2.78c.08,34.46,0,69.19-2,103.59A2.81,2.81,0,0,0,94,278.46c28.06.25,56.15,1.92,84.22,1.46a2.82,2.82,0,0,0,2.78-2.78C181.3,243.42,182.13,209.51,180.27,175.82Zm-55.15,1.88q13.41.35,26.82.59a2.63,2.63,0,0,1-1.09,1.54c-1,.66-4,.17-5.13.19a134.38,134.38,0,0,1-20.64-1.27C125.09,178.4,125.1,178.05,125.12,177.7Zm.21-10.43c4.24,0,8.49-.15,12.73-.18,3.27,0,6.54-.05,9.82,0,1.23,0,2.57.21,3.8.1a2.61,2.61,0,0,1,.39,0c0,1.3.07,2.59.07,3.88q-7.27-.31-14.56-.52-6.14-.18-12.27-.43C125.32,169.16,125.33,168.21,125.33,167.27ZM172.61,215l-.75,54.28a2.83,2.83,0,0,1-2.78,2.79l-22.64-.33-31.72-.45c-3.7-.05-12.14,1.64-13.52-3-1.2-4-.3-9.47-.19-13.6.13-4.89.36-9.78.53-14.66.67-20.09.84-40.05.44-60.14a2.82,2.82,0,0,1,2.79-2.79q7.38.27,14.78.47l-.12,3.57a2.82,2.82,0,0,0,2,2.69c9.94,1.52,21.81,3.39,31.78,1.4,2.39-.48,3.48-1.42,4-3.85a25.89,25.89,0,0,0,.44-3l12.59.23a2.83,2.83,0,0,1,2.78,2.79Q172.86,198.19,172.61,215Z" transform="translate(-91.22 -161.15)"/><path d="M115.55,206.71q20.52.42,41-.72c3.56-.2,3.58-5.77,0-5.57q-20.49,1.14-41,.72C112,201.07,112,206.64,115.55,206.71Z" transform="translate(-91.22 -161.15)"/><path d="M157.11,225.07A360.21,360.21,0,0,1,115.55,224c-3.58-.3-3.56,5.27,0,5.57a360.21,360.21,0,0,0,41.56,1.08C160.68,230.52,160.7,225,157.11,225.07Z" transform="translate(-91.22 -161.15)"/><path d="M154.16,248.43q-17.35-1.52-34.74-2.8c-3.57-.26-3.56,5.31,0,5.57q17.38,1.28,34.74,2.8C157.73,254.31,157.71,248.74,154.16,248.43Z" transform="translate(-91.22 -161.15)"/></svg>